# xmcd
#
# Track frame offsets: 
#        150
#        17302
#        31052
#        71027
#        90765
#        117502
#        142707
#        183610
#        199834
#        212895
#        215160
#        231715
#        254547
#        271727
#        274055
#
# Disc length: 4015 seconds
#
# Revision: 2
# Processed by: cddbd v1.5.2PL0 Copyright (c) Steve Scherf et al.
# Submitted via: ExactAudioCopy v0.95a4
#
DISCID=dd0fad0f
DTITLE=Various Artist - Ask The Fish
DYEAR=1995
DGENRE=Bluegrass
TTITLE0=Carnival Time
TTITLE1=Bend In The River
TTITLE2=Ask The Fish
TTITLE3=Lonesome Road
TTITLE4=Two Step Au Will/Madame Rosin
TTITLE5=Rueben's Train
TTITLE6=When The Levee Breaks
TTITLE7=Jokester
TTITLE8=Stay Away Monday
TTITLE9=Cactus Flower
TTITLE10=Hot Corn/Cold Corn
TTITLE11=Come On Home
TTITLE12=Rocky Road Blues
TTITLE13=70's Lick
TTITLE14=Headbag
EXTD=
EXTT0=
EXTT1=
EXTT2=
EXTT3=
EXTT4=
EXTT5=
EXTT6=
EXTT7=
EXTT8=
EXTT9=
EXTT10=
EXTT11=
EXTT12=
EXTT13=
EXTT14=
PLAYORDER=
